<svg width="26" height="24" viewBox="0 0 26 24" fill="none" xmlns="http://www.w3.org/2000/svg">
<path d="M6.28001 8.4799H19.48M6.28001 13.7599H12.88M24.7601 22.9999L20.372 20.8058C20.0393 20.6395 19.873 20.5563 19.6986 20.4977C19.5439 20.4457 19.3846 20.4081 19.2229 20.3854C19.0407 20.3599 18.8548 20.3599 18.4829 20.3599H5.22401C3.74546 20.3599 3.00619 20.3599 2.44147 20.0722C1.94471 19.8191 1.54084 19.4152 1.28775 18.9185C1 18.3538 1 17.6145 1 16.1359V6.10389C1 4.62534 1 3.88608 1.28775 3.32135C1.54084 2.8246 1.94471 2.42073 2.44147 2.16763C3.00619 1.87988 3.74547 1.87988 5.22401 1.87988H20.536C22.0146 1.87988 22.7539 1.87988 23.3186 2.16763C23.8153 2.42073 24.2192 2.8246 24.4723 3.32135C24.7601 3.88608 24.7601 4.62536 24.7601 6.10389V22.9999Z" stroke="white" stroke-width="2" stroke-linecap="round" stroke-linejoin="round"/>
</svg>
