<svg width="50" height="48" viewBox="0 0 50 48" fill="none" xmlns="http://www.w3.org/2000/svg">
<path d="M21.1958 3.7082C22.3932 0.0229568 27.6068 0.0229596 28.8042 3.7082L31.7354 12.7295C32.2709 14.3776 33.8067 15.4934 35.5396 15.4934L45.0252 15.4934C48.9001 15.4934 50.5112 20.4519 47.3763 22.7295L39.7024 28.305C38.3004 29.3235 37.7138 31.129 38.2493 32.7771L41.1805 41.7984C42.3779 45.4836 38.16 48.5481 35.0251 46.2705L27.3511 40.695C25.9492 39.6765 24.0508 39.6765 22.6489 40.695L14.9749 46.2705C11.84 48.5481 7.62212 45.4836 8.81953 41.7984L11.7507 32.7771C12.2862 31.129 11.6996 29.3235 10.2976 28.305L2.62367 22.7295C-0.511187 20.4519 1.09992 15.4934 4.97481 15.4934L14.4604 15.4934C16.1933 15.4934 17.7291 14.3776 18.2646 12.7295L21.1958 3.7082Z" fill="#F5A747"/>
</svg>
