<svg width="50" height="48" viewBox="0 0 50 48" fill="none" xmlns="http://www.w3.org/2000/svg">
<path d="M28.3287 3.86271L31.2599 12.884C31.8623 14.7381 33.5901 15.9934 35.5396 15.9934L45.0252 15.9934C48.4157 15.9934 49.8254 20.3321 47.0824 22.325L39.4085 27.9004C37.8313 29.0463 37.1713 31.0775 37.7738 32.9316L40.7049 41.9529C41.7527 45.1775 38.062 47.8589 35.319 45.866L27.645 40.2905C26.0678 39.1446 23.9322 39.1446 22.355 40.2905L14.681 45.866C11.938 47.8589 8.24732 45.1775 9.29506 41.9529L12.2262 32.9316C12.8287 31.0775 12.1687 29.0463 10.5915 27.9004L2.91756 22.325C0.174562 20.3321 1.58428 15.9934 4.97481 15.9934L14.4604 15.9934C16.4099 15.9934 18.1377 14.7381 18.7401 12.884L21.6713 3.86271C22.719 0.638122 27.281 0.638123 28.3287 3.86271Z" fill="#D5D5D5" stroke="#11567D"/>
</svg>
