<svg width="115" height="115" viewBox="0 0 115 115" fill="none" xmlns="http://www.w3.org/2000/svg">
<circle cx="57.3488" cy="57.3488" r="57.3488" fill="white"/>
<path d="M73.8839 37.2559V43.7442M73.8839 43.7442V50.2326M73.8839 43.7442H67.3955M73.8839 43.7442H80.3723" stroke="#11567D" stroke-width="5" stroke-linecap="round" stroke-linejoin="round"/>
<path d="M57.1396 70.744C62.8037 70.744 67.3954 66.1524 67.3954 60.4882C67.3954 54.8241 62.8037 50.2324 57.1396 50.2324C51.4755 50.2324 46.8838 54.8241 46.8838 60.4882C46.8838 66.1524 51.4755 70.744 57.1396 70.744Z" fill="#F5A747" stroke="#11567D" stroke-width="5" stroke-linecap="round" stroke-linejoin="round"/>
<path d="M80.3719 55.3867V73.5175C80.3719 76.3785 78.0605 78.6977 75.2091 78.6977H39.0695C36.2182 78.6977 33.9067 76.3785 33.9067 73.5175V50.2064C33.9067 47.3455 36.2182 45.0262 39.0695 45.0262H42.9416C44.5666 45.0262 46.0968 44.2585 47.0719 42.9541L49.7823 39.328C50.7573 38.0235 52.2876 37.2559 53.9126 37.2559H60.366" stroke="#11567D" stroke-width="5" stroke-linecap="round" stroke-linejoin="round"/>
</svg>
